<?xml version="1.0" encoding="utf-8" standalone="no"?>
<!DOCTYPE svg PUBLIC "-//W3C//DTD SVG 1.1//EN"
  "http://www.w3.org/Graphics/SVG/1.1/DTD/svg11.dtd">
<!-- Created with matplotlib (http://matplotlib.org/) -->
<svg height="355.550313pt" version="1.1" viewBox="0 0 523.6 355.550313" width="523.6pt" xmlns="http://www.w3.org/2000/svg" xmlns:xlink="http://www.w3.org/1999/xlink">
 <defs>
  <style type="text/css">
*{stroke-linecap:butt;stroke-linejoin:round;}
  </style>
 </defs>
 <g id="figure_1">
  <g id="patch_1">
   <path d="M 0 355.550313 
L 523.6 355.550313 
L 523.6 0 
L 0 0 
z
" style="fill:#ffffff;"/>
  </g>
  <g id="axes_1">
   <g id="matplotlib.axis_1">
    <g id="xtick_1">
     <g id="line2d_1">
      <defs>
       <path d="M 0 0 
L 0 3.5 
" id="m2a345b6303" style="stroke:#000000;stroke-width:0.8;"/>
      </defs>
      <g>
       <use style="stroke:#000000;stroke-width:0.8;" x="62.092137" xlink:href="#m2a345b6303" y="319.550313"/>
      </g>
     </g>
     <g id="text_1">
      <!-- 15 -->
      <defs>
       <path d="M 2.796875 64.59375 
L 4.703125 58.203125 
L 17.90625 62.296875 
L 17.90625 0 
L 25.703125 0 
L 25.703125 70.5 
L 19.90625 70.5 
z
" id="Gotham-Book-31"/>
       <path d="M 9.90625 35.90625 
L 15.203125 32.40625 
C 19.296875 34.59375 24 36.40625 29.90625 36.40625 
C 40.203125 36.40625 47.296875 30.40625 47.296875 21.59375 
C 47.296875 12.59375 40.40625 6 30.40625 6 
C 23.296875 6 16.59375 9.703125 10.5 15.59375 
L 5.296875 9.90625 
C 11.59375 3.59375 20.296875 -1.203125 30.296875 -1.203125 
C 44.90625 -1.203125 55.296875 8.09375 55.296875 21.90625 
C 55.296875 35.296875 44.703125 43.40625 31.09375 43.40625 
C 25.296875 43.40625 21.40625 42.09375 17.296875 40.296875 
L 18.796875 62.703125 
L 52.203125 62.703125 
L 52.203125 70 
L 11.90625 70 
z
" id="Gotham-Book-35"/>
      </defs>
      <g style="fill:#595959;" transform="translate(57.242137 333.850313)scale(0.1 -0.1)">
       <use xlink:href="#Gotham-Book-31"/>
       <use x="35.799988" xlink:href="#Gotham-Book-35"/>
      </g>
     </g>
    </g>
    <g id="xtick_2">
     <g id="line2d_2">
      <g>
       <use style="stroke:#000000;stroke-width:0.8;" x="158.334942" xlink:href="#m2a345b6303" y="319.550313"/>
      </g>
     </g>
     <g id="text_2">
      <!-- 20 -->
      <defs>
       <path d="M 30.703125 63.90625 
C 38.296875 63.90625 44.796875 58.703125 44.796875 50.5 
C 44.796875 43.5 40.90625 38.09375 30.203125 28.5 
L 4.796875 6.09375 
L 4.796875 0 
L 53.703125 0 
L 53.703125 7.203125 
L 16.59375 7.203125 
L 35.296875 23.796875 
C 47.59375 34.5 53 40.796875 53 51.09375 
C 53 62.59375 44 71 31.296875 71 
C 19 71 12.40625 65.5 6.09375 56.09375 
L 11.90625 51.90625 
C 17.5 59.703125 22.703125 63.90625 30.703125 63.90625 
z
" id="Gotham-Book-32"/>
       <path d="M 65.296875 35.09375 
C 65.296875 54.796875 53.90625 71.203125 35.90625 71.203125 
C 17.796875 71.203125 6.203125 54.59375 6.203125 34.90625 
C 6.203125 15.203125 17.59375 -1.203125 35.703125 -1.203125 
C 53.703125 -1.203125 65.296875 15.40625 65.296875 35.09375 
z
M 57.09375 34.90625 
C 57.09375 19.5 49 6 35.90625 6 
C 22.796875 6 14.40625 19.59375 14.40625 35.09375 
C 14.40625 50.59375 22.59375 64 35.703125 64 
C 48.796875 64 57.09375 50.296875 57.09375 34.90625 
z
" id="Gotham-Book-30"/>
      </defs>
      <g style="fill:#595959;" transform="translate(151.76463 333.850313)scale(0.1 -0.1)">
       <use xlink:href="#Gotham-Book-32"/>
       <use x="59.899994" xlink:href="#Gotham-Book-30"/>
      </g>
     </g>
    </g>
    <g id="xtick_3">
     <g id="line2d_3">
      <g>
       <use style="stroke:#000000;stroke-width:0.8;" x="254.577747" xlink:href="#m2a345b6303" y="319.550313"/>
      </g>
     </g>
     <g id="text_3">
      <!-- 25 -->
      <g style="fill:#595959;" transform="translate(248.522279 333.850313)scale(0.1 -0.1)">
       <use xlink:href="#Gotham-Book-32"/>
       <use x="59.899994" xlink:href="#Gotham-Book-35"/>
      </g>
     </g>
    </g>
    <g id="xtick_4">
     <g id="line2d_4">
      <g>
       <use style="stroke:#000000;stroke-width:0.8;" x="350.820552" xlink:href="#m2a345b6303" y="319.550313"/>
      </g>
     </g>
     <g id="text_4">
      <!-- 30 -->
      <defs>
       <path d="M 42.90625 62.90625 
L 20.796875 38 
L 22.40625 33.296875 
L 26.90625 33.296875 
C 38.5 33.296875 46.5 28.5 46.5 19.703125 
C 46.5 11.40625 39.703125 6 31.203125 6 
C 22.59375 6 16.09375 9.796875 10.703125 16.40625 
L 5 11.296875 
C 10.703125 3.90625 19.40625 -1.203125 31.09375 -1.203125 
C 44.09375 -1.203125 54.5 7.40625 54.5 20 
C 54.5 32.90625 43.703125 38.796875 31.40625 39.796875 
L 53.40625 64.203125 
L 53.40625 70 
L 8.703125 70 
L 8.703125 62.90625 
z
" id="Gotham-Book-33"/>
      </defs>
      <g style="fill:#595959;" transform="translate(344.180709 333.850313)scale(0.1 -0.1)">
       <use xlink:href="#Gotham-Book-33"/>
       <use x="61.299988" xlink:href="#Gotham-Book-30"/>
      </g>
     </g>
    </g>
    <g id="xtick_5">
     <g id="line2d_5">
      <g>
       <use style="stroke:#000000;stroke-width:0.8;" x="447.063358" xlink:href="#m2a345b6303" y="319.550313"/>
      </g>
     </g>
     <g id="text_5">
      <!-- 35 -->
      <g style="fill:#595959;" transform="translate(440.938358 333.850313)scale(0.1 -0.1)">
       <use xlink:href="#Gotham-Book-33"/>
       <use x="61.299988" xlink:href="#Gotham-Book-35"/>
      </g>
     </g>
    </g>
    <g id="text_6">
     <!-- Endowment -->
     <defs>
      <path d="M 60.5 70 
L 9.90625 70 
L 9.90625 0 
L 61 0 
L 61 7.203125 
L 17.796875 7.203125 
L 17.796875 31.703125 
L 56 31.703125 
L 56 38.90625 
L 17.796875 38.90625 
L 17.796875 62.796875 
L 60.5 62.796875 
z
" id="Gotham-Book-45"/>
      <path d="M 16.296875 29.59375 
C 16.296875 39.296875 22.90625 45.796875 31.796875 45.796875 
C 40.90625 45.796875 46.09375 39.796875 46.09375 30.203125 
L 46.09375 0 
L 53.796875 0 
L 53.796875 32.09375 
C 53.796875 44.40625 46.5 52.796875 34 52.796875 
C 25.09375 52.796875 19.703125 48.296875 16.296875 42.703125 
L 16.296875 51.703125 
L 8.59375 51.703125 
L 8.59375 0 
L 16.296875 0 
z
" id="Gotham-Book-6e"/>
      <path d="M 57.796875 0 
L 57.796875 73 
L 50.09375 73 
L 50.09375 41.796875 
C 46.09375 47.59375 39.90625 52.796875 30.296875 52.796875 
C 17.90625 52.796875 5.59375 42.796875 5.59375 25.796875 
C 5.59375 8.703125 17.90625 -1.09375 30.296875 -1.09375 
C 39.796875 -1.09375 45.90625 4.203125 50.09375 10.40625 
L 50.09375 0 
z
M 50.40625 25.90625 
C 50.40625 13.796875 41.296875 5.796875 31.703125 5.796875 
C 21.90625 5.796875 13.5 13.59375 13.5 25.90625 
C 13.5 38.5 21.703125 45.90625 31.703125 45.90625 
C 41.296875 45.90625 50.40625 37.90625 50.40625 25.90625 
z
" id="Gotham-Book-64"/>
      <path d="M 59.296875 25.90625 
C 59.296875 40.59375 47.90625 52.796875 32.40625 52.796875 
C 16.796875 52.796875 5.40625 40.40625 5.40625 25.703125 
C 5.40625 11 16.703125 -1.203125 32.203125 -1.203125 
C 47.796875 -1.203125 59.296875 11.203125 59.296875 25.90625 
z
M 51.40625 25.703125 
C 51.40625 14.59375 43.59375 5.703125 32.40625 5.703125 
C 21.5 5.703125 13.296875 14.703125 13.296875 25.90625 
C 13.296875 37.09375 21 46 32.203125 46 
C 43.09375 46 51.40625 37 51.40625 25.703125 
z
" id="Gotham-Book-6f"/>
      <path d="M 46.296875 51.90625 
L 39.90625 51.90625 
L 26 10.203125 
L 12.40625 51.703125 
L 4.203125 51.703125 
L 22.296875 -0.40625 
L 29.09375 -0.40625 
L 43.09375 40.40625 
L 57 -0.40625 
L 63.703125 -0.40625 
L 81.90625 51.703125 
L 73.90625 51.703125 
L 60.296875 10.203125 
z
" id="Gotham-Book-77"/>
      <path d="M 49.59375 42.5 
C 46.796875 48.296875 41.40625 52.796875 33 52.796875 
C 24.296875 52.796875 19.703125 48.09375 16.296875 43 
L 16.296875 51.703125 
L 8.59375 51.703125 
L 8.59375 0 
L 16.296875 0 
L 16.296875 29.5 
C 16.296875 39 22.5 45.796875 30.703125 45.796875 
C 38.90625 45.796875 44 40.09375 44 30.40625 
L 44 0 
L 51.59375 0 
L 51.59375 29.796875 
C 51.59375 40 58.09375 45.796875 65.90625 45.796875 
C 74.296875 45.796875 79.296875 40.203125 79.296875 30.203125 
L 79.296875 0 
L 87 0 
L 87 32 
C 87 44.796875 79.703125 52.796875 67.796875 52.796875 
C 58.796875 52.796875 53.296875 48.203125 49.59375 42.5 
z
" id="Gotham-Book-6d"/>
      <path d="M 13.203125 23 
L 54.203125 23 
C 54.296875 23.90625 54.296875 24.703125 54.296875 25.40625 
C 54.296875 40.59375 45.5 52.796875 30.203125 52.796875 
C 15.90625 52.796875 5.40625 40.796875 5.40625 25.796875 
C 5.40625 9.703125 17 -1.203125 31.203125 -1.203125 
C 41 -1.203125 47.296875 2.703125 52.5 8.5 
L 47.703125 12.796875 
C 43.5 8.40625 38.5 5.5 31.40625 5.5 
C 22.296875 5.5 14.296875 11.796875 13.203125 23 
z
M 13.203125 28.703125 
C 14.203125 38.796875 21 46.296875 30 46.296875 
C 40.296875 46.296875 45.703125 38.09375 46.5 28.703125 
z
" id="Gotham-Book-65"/>
      <path d="M 19 44.90625 
L 35.40625 44.90625 
L 35.40625 51.703125 
L 19 51.703125 
L 19 67.296875 
L 11.296875 67.296875 
L 11.296875 51.703125 
L 4.09375 51.703125 
L 4.09375 44.90625 
L 11.296875 44.90625 
L 11.296875 13.703125 
C 11.296875 3.203125 17.59375 -0.90625 25.90625 -0.90625 
C 29.59375 -0.90625 32.5 -0.09375 35.203125 1.296875 
L 35.203125 7.90625 
C 32.5 6.59375 30.296875 6.09375 27.703125 6.09375 
C 22.5 6.09375 19 8.40625 19 14.703125 
z
" id="Gotham-Book-74"/>
     </defs>
     <g style="fill:#595959;" transform="translate(231.700781 346.750313)scale(0.1 -0.1)">
      <use xlink:href="#Gotham-Book-45"/>
      <use x="66.999985" xlink:href="#Gotham-Book-6e"/>
      <use x="128.599976" xlink:href="#Gotham-Book-64"/>
      <use x="194.999969" xlink:href="#Gotham-Book-6f"/>
      <use x="259.59996" xlink:href="#Gotham-Book-77"/>
      <use x="345.699951" xlink:href="#Gotham-Book-6d"/>
      <use x="440.799942" xlink:href="#Gotham-Book-65"/>
      <use x="499.999939" xlink:href="#Gotham-Book-6e"/>
      <use x="561.59993" xlink:href="#Gotham-Book-74"/>
     </g>
    </g>
   </g>
   <g id="line2d_6">
    <path clip-path="url(#pa0f347f6ce)" d="M 33.527273 305.960313 
L 38.138843 305.960313 
L 42.750413 299.53984 
L 47.361983 299.53984 
L 51.973554 299.53984 
L 56.585124 299.53984 
L 61.196694 299.53984 
L 65.808264 299.53984 
L 70.419835 272.787872 
L 75.031405 272.787872 
L 79.642975 272.787872 
L 84.254545 272.787872 
L 88.866116 272.787872 
L 93.477686 253.526454 
L 98.089256 253.526454 
L 102.700826 253.526454 
L 107.312397 253.526454 
L 111.923967 253.526454 
L 116.535537 253.526454 
L 121.147107 253.526454 
L 125.758678 253.526454 
L 130.370248 249.246139 
L 134.981818 263.157163 
L 139.593388 263.157163 
L 144.204959 212.863462 
L 148.816529 212.863462 
L 153.428099 212.863462 
L 158.039669 212.863462 
L 162.65124 212.863462 
L 167.26281 212.863462 
L 171.87438 212.863462 
L 176.48595 161.499683 
L 181.097521 161.499683 
L 185.709091 161.499683 
L 190.320661 161.499683 
L 194.932231 161.499683 
L 199.543802 161.499683 
L 204.155372 161.499683 
L 208.766942 112.276061 
L 213.378512 112.276061 
L 217.990083 112.276061 
L 222.601653 112.276061 
L 227.213223 112.276061 
L 231.824793 112.276061 
L 236.436364 112.276061 
L 241.047934 107.995746 
L 245.659504 107.995746 
L 250.271074 107.995746 
L 254.882645 107.995746 
L 259.494215 107.995746 
L 264.105785 107.995746 
L 268.717355 107.995746 
L 273.328926 95.154801 
L 277.940496 95.154801 
L 282.552066 95.154801 
L 287.163636 95.154801 
L 291.775207 95.154801 
L 296.386777 95.154801 
L 300.998347 95.154801 
L 305.609917 95.154801 
L 310.221488 95.154801 
L 314.833058 95.154801 
L 319.444628 95.154801 
L 324.056198 95.154801 
L 328.667769 95.154801 
L 333.279339 95.154801 
L 337.890909 95.154801 
L 342.502479 95.154801 
L 347.11405 93.014643 
L 351.72562 93.014643 
L 356.33719 93.014643 
L 360.94876 103.715431 
L 365.560331 103.715431 
L 370.171901 103.715431 
L 374.783471 103.715431 
L 379.395041 112.276061 
L 384.006612 104.785509 
L 388.618182 104.785509 
L 393.229752 84.454013 
L 397.841322 64.122517 
L 402.452893 64.122517 
L 407.064463 64.122517 
L 411.676033 64.122517 
L 416.287603 64.122517 
L 420.899174 64.122517 
L 425.510744 64.122517 
L 430.122314 64.122517 
L 434.733884 64.122517 
L 439.345455 51.281572 
L 443.957025 51.281572 
L 448.568595 51.281572 
L 453.180165 40.580785 
L 457.791736 40.580785 
L 462.403306 40.580785 
L 467.014876 35.230391 
L 471.626446 35.230391 
L 476.238017 35.230391 
L 480.849587 39.510706 
L 485.461157 39.510706 
L 490.072727 34.160313 
" style="fill:none;stroke:#d2232a;stroke-linecap:square;stroke-width:1.5;"/>
   </g>
   <g id="text_7">
    <!-- The Controlled Correlation Between Endowment (Billions of Dollars) and Housing Prices -->
    <defs>
     <path d="M 23.296875 53 
L 2.296875 53 
L 2.296875 70 
L 63.703125 70 
L 63.703125 53 
L 42.703125 53 
L 42.703125 0 
L 23.296875 0 
z
" id="GothamBlack-54"/>
     <path d="M 5.09375 73 
L 24.09375 73 
L 24.09375 46.703125 
Q 26.703125 50.09375 30.59375 52.6875 
Q 34.5 55.296875 40.296875 55.296875 
Q 49 55.296875 53.84375 50 
Q 58.703125 44.703125 58.703125 35.40625 
L 58.703125 0 
L 39.703125 0 
L 39.703125 29.296875 
Q 39.703125 33.796875 37.59375 36.09375 
Q 35.5 38.40625 32.09375 38.40625 
Q 28.59375 38.40625 26.34375 36.09375 
Q 24.09375 33.796875 24.09375 29.296875 
L 24.09375 0 
L 5.09375 0 
z
" id="GothamBlack-68"/>
     <path d="M 39.703125 31.5 
Q 39.203125 36 36.703125 38.640625 
Q 34.203125 41.296875 30.296875 41.296875 
Q 26.5 41.296875 24.09375 38.640625 
Q 21.703125 36 20.90625 31.5 
z
M 31.90625 -1.296875 
Q 25.5 -1.296875 20.203125 0.75 
Q 14.90625 2.796875 11.046875 6.4375 
Q 7.203125 10.09375 5.046875 15.296875 
Q 2.90625 20.5 2.90625 26.796875 
L 2.90625 27 
Q 2.90625 32.90625 4.90625 38.046875 
Q 6.90625 43.203125 10.546875 47.046875 
Q 14.203125 50.90625 19.203125 53.09375 
Q 24.203125 55.296875 30.203125 55.296875 
Q 37.203125 55.296875 42.34375 52.890625 
Q 47.5 50.5 50.84375 46.453125 
Q 54.203125 42.40625 55.84375 37.046875 
Q 57.5 31.703125 57.5 25.703125 
Q 57.5 24.796875 57.5 23.796875 
Q 57.5 22.796875 57.40625 21.796875 
L 21.203125 21.796875 
Q 22.296875 17.296875 25.34375 15.09375 
Q 28.40625 12.90625 32.90625 12.90625 
Q 36.296875 12.90625 39.140625 14.203125 
Q 42 15.5 44.90625 18.40625 
L 55.40625 9.703125 
Q 51.5 4.703125 45.75 1.703125 
Q 40 -1.296875 31.90625 -1.296875 
z
" id="GothamBlack-65"/>
     <path id="GothamBlack-20"/>
     <path d="M 39.90625 -1.40625 
Q 32.40625 -1.40625 25.796875 1.296875 
Q 19.203125 4 14.34375 8.84375 
Q 9.5 13.703125 6.640625 20.34375 
Q 3.796875 27 3.796875 34.796875 
L 3.796875 35 
Q 3.796875 42.59375 6.59375 49.25 
Q 9.40625 55.90625 14.296875 60.84375 
Q 19.203125 65.796875 25.953125 68.59375 
Q 32.703125 71.40625 40.703125 71.40625 
Q 46.09375 71.40625 50.5 70.34375 
Q 54.90625 69.296875 58.546875 67.34375 
Q 62.203125 65.40625 65.140625 62.703125 
Q 68.09375 60 70.40625 56.796875 
L 55.796875 45.5 
Q 52.796875 49.296875 49.1875 51.5 
Q 45.59375 53.703125 40.5 53.703125 
Q 36.796875 53.703125 33.75 52.25 
Q 30.703125 50.796875 28.5 48.296875 
Q 26.296875 45.796875 25.046875 42.390625 
Q 23.796875 39 23.796875 35.203125 
L 23.796875 35 
Q 23.796875 31.09375 25.046875 27.640625 
Q 26.296875 24.203125 28.5 21.703125 
Q 30.703125 19.203125 33.75 17.75 
Q 36.796875 16.296875 40.5 16.296875 
Q 43.203125 16.296875 45.453125 16.890625 
Q 47.703125 17.5 49.546875 18.640625 
Q 51.40625 19.796875 53.046875 21.34375 
Q 54.703125 22.90625 56.296875 24.796875 
L 70.90625 14.40625 
Q 68.40625 11 65.453125 8.09375 
Q 62.5 5.203125 58.75 3.09375 
Q 55 1 50.34375 -0.203125 
Q 45.703125 -1.40625 39.90625 -1.40625 
z
" id="GothamBlack-43"/>
     <path d="M 32.90625 14.796875 
Q 35.5 14.796875 37.59375 15.75 
Q 39.703125 16.703125 41.140625 18.34375 
Q 42.59375 20 43.390625 22.203125 
Q 44.203125 24.40625 44.203125 26.796875 
L 44.203125 27 
Q 44.203125 29.5 43.34375 31.703125 
Q 42.5 33.90625 40.953125 35.546875 
Q 39.40625 37.203125 37.296875 38.203125 
Q 35.203125 39.203125 32.703125 39.203125 
Q 30.09375 39.203125 28 38.25 
Q 25.90625 37.296875 24.453125 35.640625 
Q 23 34 22.203125 31.796875 
Q 21.40625 29.59375 21.40625 27.203125 
L 21.40625 27 
Q 21.40625 24.5 22.25 22.296875 
Q 23.09375 20.09375 24.640625 18.4375 
Q 26.203125 16.796875 28.296875 15.796875 
Q 30.40625 14.796875 32.90625 14.796875 
z
M 32.703125 -1.296875 
Q 26.203125 -1.296875 20.75 0.890625 
Q 15.296875 3.09375 11.296875 6.9375 
Q 7.296875 10.796875 5.09375 15.890625 
Q 2.90625 21 2.90625 26.796875 
L 2.90625 27 
Q 2.90625 32.796875 5.15625 37.9375 
Q 7.40625 43.09375 11.40625 46.9375 
Q 15.40625 50.796875 20.90625 53.046875 
Q 26.40625 55.296875 32.90625 55.296875 
Q 39.40625 55.296875 44.84375 53.046875 
Q 50.296875 50.796875 54.296875 47 
Q 58.296875 43.203125 60.5 38.09375 
Q 62.703125 33 62.703125 27.203125 
L 62.703125 27 
Q 62.703125 21.203125 60.453125 16.046875 
Q 58.203125 10.90625 54.203125 7.046875 
Q 50.203125 3.203125 44.703125 0.953125 
Q 39.203125 -1.296875 32.703125 -1.296875 
z
" id="GothamBlack-6f"/>
     <path d="M 5.09375 54.09375 
L 24.09375 54.09375 
L 24.09375 46.5 
Q 25.40625 48.203125 27 49.796875 
Q 28.59375 51.40625 30.59375 52.59375 
Q 32.59375 53.796875 35 54.546875 
Q 37.40625 55.296875 40.296875 55.296875 
Q 49 55.296875 53.84375 50 
Q 58.703125 44.703125 58.703125 35.40625 
L 58.703125 0 
L 39.703125 0 
L 39.703125 29.296875 
Q 39.703125 33.796875 37.59375 36.09375 
Q 35.5 38.40625 32.09375 38.40625 
Q 28.59375 38.40625 26.34375 36.09375 
Q 24.09375 33.796875 24.09375 29.296875 
L 24.09375 0 
L 5.09375 0 
z
" id="GothamBlack-6e"/>
     <path d="M 26.59375 -1.09375 
Q 18 -1.09375 13.203125 3 
Q 8.40625 7.09375 8.40625 16.796875 
L 8.40625 38.796875 
L 2 38.796875 
L 2 54.09375 
L 8.40625 54.09375 
L 8.40625 67.796875 
L 27.40625 67.796875 
L 27.40625 54.09375 
L 40 54.09375 
L 40 38.796875 
L 27.40625 38.796875 
L 27.40625 20.5 
Q 27.40625 17.59375 28.703125 16.34375 
Q 30 15.09375 32.59375 15.09375 
Q 34.5 15.09375 36.296875 15.59375 
Q 38.09375 16.09375 39.796875 16.90625 
L 39.796875 2 
Q 37.203125 0.59375 33.890625 -0.25 
Q 30.59375 -1.09375 26.59375 -1.09375 
z
" id="GothamBlack-74"/>
     <path d="M 5.09375 54.09375 
L 24.09375 54.09375 
L 24.09375 43.203125 
Q 26.40625 48.703125 30.40625 52 
Q 34.40625 55.296875 41.203125 55 
L 41.203125 35 
L 39.59375 35 
Q 32.09375 35 28.09375 30.59375 
Q 24.09375 26.203125 24.09375 16.796875 
L 24.09375 0 
L 5.09375 0 
z
" id="GothamBlack-72"/>
     <path d="M 5.5 73 
L 24.5 73 
L 24.5 0 
L 5.5 0 
z
" id="GothamBlack-6c"/>
     <path d="M 32.796875 14.703125 
Q 35.09375 14.703125 37.09375 15.59375 
Q 39.09375 16.5 40.59375 18.140625 
Q 42.09375 19.796875 42.9375 22.046875 
Q 43.796875 24.296875 43.796875 27 
L 43.796875 27.203125 
Q 43.796875 29.90625 42.9375 32.09375 
Q 42.09375 34.296875 40.59375 35.9375 
Q 39.09375 37.59375 37.09375 38.5 
Q 35.09375 39.40625 32.796875 39.40625 
Q 30.5 39.40625 28.5 38.5 
Q 26.5 37.59375 25 36 
Q 23.5 34.40625 22.59375 32.15625 
Q 21.703125 29.90625 21.703125 27.203125 
L 21.703125 27 
Q 21.703125 24.296875 22.59375 22.046875 
Q 23.5 19.796875 25 18.140625 
Q 26.5 16.5 28.5 15.59375 
Q 30.5 14.703125 32.796875 14.703125 
z
M 27 -1.203125 
Q 22.203125 -1.203125 17.84375 0.75 
Q 13.5 2.703125 10.25 6.296875 
Q 7 9.90625 5.046875 15.09375 
Q 3.09375 20.296875 3.09375 26.796875 
L 3.09375 27 
Q 3.09375 33.59375 5 38.84375 
Q 6.90625 44.09375 10.203125 47.75 
Q 13.5 51.40625 17.796875 53.34375 
Q 22.09375 55.296875 26.90625 55.296875 
Q 33 55.296875 36.890625 52.9375 
Q 40.796875 50.59375 43.5 47.5 
L 43.5 73 
L 62.5 73 
L 62.5 0 
L 43.5 0 
L 43.5 7.203125 
Q 40.703125 3.796875 36.890625 1.296875 
Q 33.09375 -1.203125 27 -1.203125 
z
" id="GothamBlack-64"/>
     <path d="M 27.40625 10.703125 
Q 31.59375 10.703125 34.1875 13.09375 
Q 36.796875 15.5 36.796875 19.59375 
L 36.796875 22.09375 
Q 35.40625 22.703125 33.453125 23.09375 
Q 31.5 23.5 29.40625 23.5 
Q 25.203125 23.5 22.953125 21.640625 
Q 20.703125 19.796875 20.703125 16.796875 
L 20.703125 16.59375 
Q 20.703125 13.796875 22.59375 12.25 
Q 24.5 10.703125 27.40625 10.703125 
z
M 20.59375 -1.203125 
Q 16.703125 -1.203125 13.390625 -0.09375 
Q 10.09375 1 7.640625 3.09375 
Q 5.203125 5.203125 3.796875 8.296875 
Q 2.40625 11.40625 2.40625 15.5 
L 2.40625 15.703125 
Q 2.40625 19.90625 3.953125 23.09375 
Q 5.5 26.296875 8.25 28.390625 
Q 11 30.5 14.890625 31.59375 
Q 18.796875 32.703125 23.59375 32.703125 
Q 27.40625 32.703125 30.84375 32.046875 
Q 34.296875 31.40625 36.59375 30.59375 
L 36.59375 31.5 
Q 36.59375 35.703125 33.9375 38 
Q 31.296875 40.296875 25.796875 40.296875 
Q 21.5 40.296875 18 39.5 
Q 14.5 38.703125 10.90625 37.296875 
L 7 50.703125 
Q 11.59375 52.59375 16.75 53.75 
Q 21.90625 54.90625 28.90625 54.90625 
Q 36.203125 54.90625 41.25 53.203125 
Q 46.296875 51.5 49.5 48.296875 
Q 52.59375 45.296875 53.9375 41.046875 
Q 55.296875 36.796875 55.296875 31.09375 
L 55.296875 0 
L 36.5 0 
L 36.5 5.59375 
Q 33.703125 2.5 29.84375 0.640625 
Q 26 -1.203125 20.59375 -1.203125 
z
" id="GothamBlack-61"/>
     <path d="M 5.5 54.09375 
L 24.5 54.09375 
L 24.5 0 
L 5.5 0 
z
M 5.09375 73 
L 24.90625 73 
L 24.90625 59 
L 5.09375 59 
z
" id="GothamBlack-69"/>
     <path d="M 40.09375 15.59375 
Q 44.59375 15.59375 47 17.25 
Q 49.40625 18.90625 49.40625 22 
L 49.40625 22.203125 
Q 49.40625 25.09375 47.09375 26.796875 
Q 44.796875 28.5 39.90625 28.5 
L 25.09375 28.5 
L 25.09375 15.59375 
z
M 37.296875 42.09375 
Q 41.796875 42.09375 44.140625 43.59375 
Q 46.5 45.09375 46.5 48.203125 
L 46.5 48.40625 
Q 46.5 51.296875 44.296875 52.84375 
Q 42.09375 54.40625 37.703125 54.40625 
L 25.09375 54.40625 
L 25.09375 42.09375 
z
M 6.203125 70 
L 42.09375 70 
Q 48.703125 70 53.390625 68.390625 
Q 58.09375 66.796875 61.203125 63.703125 
Q 63.296875 61.59375 64.5 58.796875 
Q 65.703125 56 65.703125 52.40625 
L 65.703125 52.203125 
Q 65.703125 46.09375 62.640625 42.34375 
Q 59.59375 38.59375 54.90625 36.59375 
Q 61.296875 34.5 65.046875 30.546875 
Q 68.796875 26.59375 68.796875 19.5 
L 68.796875 19.296875 
Q 68.796875 10.203125 61.84375 5.09375 
Q 54.90625 0 42.296875 0 
L 6.203125 0 
z
" id="GothamBlack-42"/>
     <path d="M 1.203125 54.09375 
L 19.796875 54.09375 
L 26.90625 26.90625 
L 35.203125 54.296875 
L 50.90625 54.296875 
L 59.296875 26.703125 
L 66.59375 54.09375 
L 84.90625 54.09375 
L 68.203125 -0.40625 
L 51.796875 -0.40625 
L 43 27.703125 
L 34 -0.40625 
L 17.703125 -0.40625 
z
" id="GothamBlack-77"/>
     <path d="M 6.203125 70 
L 62.5 70 
L 62.5 53.5 
L 25.40625 53.5 
L 25.40625 42.90625 
L 59 42.90625 
L 59 27.59375 
L 25.40625 27.59375 
L 25.40625 16.5 
L 63 16.5 
L 63 0 
L 6.203125 0 
z
" id="GothamBlack-45"/>
     <path d="M 5.09375 54.09375 
L 24.09375 54.09375 
L 24.09375 46.703125 
Q 26.703125 50.09375 30.59375 52.6875 
Q 34.5 55.296875 40.203125 55.296875 
Q 45.59375 55.296875 49.59375 53 
Q 53.59375 50.703125 55.796875 46.5 
Q 59.296875 50.59375 63.59375 52.9375 
Q 67.90625 55.296875 73.90625 55.296875 
Q 82.59375 55.296875 87.5 50.140625 
Q 92.40625 45 92.40625 35.5 
L 92.40625 0 
L 73.40625 0 
L 73.40625 29.40625 
Q 73.40625 33.90625 71.40625 36.15625 
Q 69.40625 38.40625 66 38.40625 
Q 62.59375 38.40625 60.390625 36.15625 
Q 58.203125 33.90625 58.203125 29.40625 
L 58.203125 0 
L 39.203125 0 
L 39.203125 29.40625 
Q 39.203125 33.90625 37.203125 36.15625 
Q 35.203125 38.40625 31.796875 38.40625 
Q 28.40625 38.40625 26.25 36.15625 
Q 24.09375 33.90625 24.09375 29.40625 
L 24.09375 0 
L 5.09375 0 
z
" id="GothamBlack-6d"/>
     <path d="M 33.59375 -14.09375 
Q 26.59375 -10.40625 21.140625 -6.09375 
Q 15.703125 -1.796875 12 3.390625 
Q 8.296875 8.59375 6.34375 14.84375 
Q 4.40625 21.09375 4.40625 28.703125 
Q 4.40625 36.296875 6.34375 42.546875 
Q 8.296875 48.796875 12 54 
Q 15.703125 59.203125 21.140625 63.5 
Q 26.59375 67.796875 33.59375 71.5 
L 41.5 59.703125 
Q 36.703125 56.40625 33.203125 52.953125 
Q 29.703125 49.5 27.453125 45.75 
Q 25.203125 42 24.09375 37.796875 
Q 23 33.59375 23 28.703125 
Q 23 23.796875 24.09375 19.59375 
Q 25.203125 15.40625 27.453125 11.65625 
Q 29.703125 7.90625 33.203125 4.453125 
Q 36.703125 1 41.5 -2.296875 
z
" id="GothamBlack-28"/>
     <path d="M 26.59375 -1.203125 
Q 19.703125 -1.203125 13.203125 0.75 
Q 6.703125 2.703125 1 6.796875 
L 8.09375 18.296875 
Q 12.796875 15.203125 17.640625 13.640625 
Q 22.5 12.09375 26.703125 12.09375 
Q 31.5 12.09375 31.5 15 
L 31.5 15.203125 
Q 31.5 16.796875 29.296875 17.6875 
Q 27.09375 18.59375 22.796875 19.796875 
Q 18.796875 20.796875 15.296875 22.140625 
Q 11.796875 23.5 9.1875 25.453125 
Q 6.59375 27.40625 5.09375 30.203125 
Q 3.59375 33 3.59375 37.09375 
L 3.59375 37.296875 
Q 3.59375 41.59375 5.25 44.9375 
Q 6.90625 48.296875 9.796875 50.546875 
Q 12.703125 52.796875 16.640625 54 
Q 20.59375 55.203125 25.296875 55.203125 
Q 31.296875 55.203125 37.09375 53.546875 
Q 42.90625 51.90625 47.59375 48.90625 
L 41.09375 36.90625 
Q 36.90625 39.203125 32.59375 40.546875 
Q 28.296875 41.90625 25.09375 41.90625 
Q 22.90625 41.90625 21.796875 41.15625 
Q 20.703125 40.40625 20.703125 39.296875 
L 20.703125 39.09375 
Q 20.703125 37.5 22.953125 36.546875 
Q 25.203125 35.59375 29.5 34.296875 
Q 33.5 33.203125 37 31.84375 
Q 40.5 30.5 43.09375 28.546875 
Q 45.703125 26.59375 47.203125 23.796875 
Q 48.703125 21 48.703125 17.09375 
L 48.703125 16.90625 
Q 48.703125 12.40625 47.09375 9.046875 
Q 45.5 5.703125 42.59375 3.390625 
Q 39.703125 1.09375 35.59375 -0.046875 
Q 31.5 -1.203125 26.59375 -1.203125 
z
" id="GothamBlack-73"/>
     <path d="M 8.5 38.90625 
L 2.203125 38.90625 
L 2.203125 53.796875 
L 8.5 53.796875 
L 8.5 55 
Q 8.5 64.40625 13.09375 69 
Q 15.59375 71.5 19 72.59375 
Q 22.40625 73.703125 27.203125 73.703125 
Q 31.59375 73.703125 34.4375 73.296875 
Q 37.296875 72.90625 39.59375 72.203125 
L 39.59375 58.796875 
Q 37.90625 59.296875 36.203125 59.59375 
Q 34.5 59.90625 32.5 59.90625 
Q 27.09375 59.90625 27.09375 54.796875 
L 27.09375 53.5 
L 39.5 53.5 
L 39.5 38.90625 
L 27.40625 38.90625 
L 27.40625 0 
L 8.5 0 
z
" id="GothamBlack-66"/>
     <path d="M 33.5 17.203125 
Q 42.203125 17.203125 47.5 21.796875 
Q 52.796875 26.40625 52.796875 34.90625 
L 52.796875 35.09375 
Q 52.796875 43.5 47.5 48.140625 
Q 42.203125 52.796875 33.5 52.796875 
L 25.59375 52.796875 
L 25.59375 17.203125 
z
M 6.203125 70 
L 33.203125 70 
Q 42.59375 70 49.9375 67.453125 
Q 57.296875 64.90625 62.34375 60.296875 
Q 67.40625 55.703125 70.046875 49.34375 
Q 72.703125 43 72.703125 35.40625 
L 72.703125 35.203125 
Q 72.703125 27.59375 70 21.140625 
Q 67.296875 14.703125 62.1875 10 
Q 57.09375 5.296875 49.640625 2.640625 
Q 42.203125 0 32.796875 0 
L 6.203125 0 
z
" id="GothamBlack-44"/>
     <path d="M 3 -2.296875 
Q 7.796875 1 11.296875 4.453125 
Q 14.796875 7.90625 17.046875 11.65625 
Q 19.296875 15.40625 20.390625 19.59375 
Q 21.5 23.796875 21.5 28.703125 
Q 21.5 33.59375 20.390625 37.796875 
Q 19.296875 42 17.046875 45.75 
Q 14.796875 49.5 11.296875 52.953125 
Q 7.796875 56.40625 3 59.703125 
L 10.90625 71.5 
Q 17.90625 67.796875 23.34375 63.5 
Q 28.796875 59.203125 32.5 54 
Q 36.203125 48.796875 38.140625 42.546875 
Q 40.09375 36.296875 40.09375 28.703125 
Q 40.09375 21.09375 38.140625 14.84375 
Q 36.203125 8.59375 32.5 3.390625 
Q 28.796875 -1.796875 23.34375 -6.09375 
Q 17.90625 -10.40625 10.90625 -14.09375 
z
" id="GothamBlack-29"/>
     <path d="M 6.203125 70 
L 25.59375 70 
L 25.59375 43.796875 
L 50.5 43.796875 
L 50.5 70 
L 69.90625 70 
L 69.90625 0 
L 50.5 0 
L 50.5 26.59375 
L 25.59375 26.59375 
L 25.59375 0 
L 6.203125 0 
z
" id="GothamBlack-48"/>
     <path d="M 23.09375 -1.203125 
Q 14.40625 -1.203125 9.546875 4.09375 
Q 4.703125 9.40625 4.703125 18.703125 
L 4.703125 54.09375 
L 23.703125 54.09375 
L 23.703125 24.796875 
Q 23.703125 20.296875 25.796875 18 
Q 27.90625 15.703125 31.40625 15.703125 
Q 34.796875 15.703125 37.046875 18 
Q 39.296875 20.296875 39.296875 24.796875 
L 39.296875 54.09375 
L 58.296875 54.09375 
L 58.296875 0 
L 39.296875 0 
L 39.296875 7.40625 
Q 36.703125 4 32.796875 1.390625 
Q 28.90625 -1.203125 23.09375 -1.203125 
z
" id="GothamBlack-75"/>
     <path d="M 32.796875 19.40625 
Q 37.59375 19.40625 40.6875 22.40625 
Q 43.796875 25.40625 43.796875 29.90625 
L 43.796875 30.09375 
Q 43.796875 34.59375 40.6875 37.546875 
Q 37.59375 40.5 32.796875 40.5 
Q 27.90625 40.5 24.796875 37.5 
Q 21.703125 34.5 21.703125 30 
L 21.703125 29.796875 
Q 21.703125 25.296875 24.796875 22.34375 
Q 27.90625 19.40625 32.796875 19.40625 
z
M 31.703125 -16.203125 
Q 23.796875 -16.203125 17.140625 -14.59375 
Q 10.5 -13 4.59375 -10 
L 10.703125 2.59375 
Q 15.09375 0.203125 19.59375 -1.140625 
Q 24.09375 -2.5 29.59375 -2.5 
Q 36.796875 -2.5 40.296875 0.890625 
Q 43.796875 4.296875 43.796875 10.796875 
L 43.796875 12.90625 
Q 40.90625 9.59375 37 7.1875 
Q 33.09375 4.796875 27.09375 4.796875 
Q 22.09375 4.796875 17.75 6.546875 
Q 13.40625 8.296875 10.15625 11.546875 
Q 6.90625 14.796875 5 19.4375 
Q 3.09375 24.09375 3.09375 29.90625 
L 3.09375 30.09375 
Q 3.09375 35.90625 5 40.59375 
Q 6.90625 45.296875 10.09375 48.546875 
Q 13.296875 51.796875 17.546875 53.546875 
Q 21.796875 55.296875 26.5 55.296875 
Q 32.59375 55.296875 36.5 53.09375 
Q 40.40625 50.90625 43.5 47.703125 
L 43.5 54.09375 
L 62.5 54.09375 
L 62.5 13 
Q 62.5 5.5 60.796875 0.25 
Q 59.09375 -5 55.5 -8.59375 
Q 51.796875 -12.296875 46 -14.25 
Q 40.203125 -16.203125 31.703125 -16.203125 
z
" id="GothamBlack-67"/>
     <path d="M 34.796875 35.203125 
Q 40 35.203125 42.953125 37.640625 
Q 45.90625 40.09375 45.90625 44.296875 
L 45.90625 44.5 
Q 45.90625 49 42.953125 51.34375 
Q 40 53.703125 34.703125 53.703125 
L 25.59375 53.703125 
L 25.59375 35.203125 
z
M 6.203125 70 
L 36.203125 70 
Q 42.796875 70 48.1875 68.34375 
Q 53.59375 66.703125 57.390625 63.546875 
Q 61.203125 60.40625 63.25 55.796875 
Q 65.296875 51.203125 65.296875 45.40625 
L 65.296875 45.203125 
Q 65.296875 39 63.046875 34.296875 
Q 60.796875 29.59375 56.796875 26.390625 
Q 52.796875 23.203125 47.25 21.59375 
Q 41.703125 20 35.203125 20 
L 25.59375 20 
L 25.59375 0 
L 6.203125 0 
z
" id="GothamBlack-50"/>
     <path d="M 31.203125 -1.296875 
Q 25.09375 -1.296875 19.890625 0.953125 
Q 14.703125 3.203125 10.953125 7 
Q 7.203125 10.796875 5.046875 15.9375 
Q 2.90625 21.09375 2.90625 26.796875 
L 2.90625 27 
Q 2.90625 32.703125 5.046875 37.84375 
Q 7.203125 43 11 46.84375 
Q 14.796875 50.703125 20.140625 52.953125 
Q 25.5 55.203125 31.90625 55.203125 
Q 40.296875 55.203125 45.890625 51.890625 
Q 51.5 48.59375 55 43.09375 
L 42.09375 33.5 
Q 40.09375 36.203125 37.796875 37.703125 
Q 35.5 39.203125 32 39.203125 
Q 29.703125 39.203125 27.75 38.25 
Q 25.796875 37.296875 24.390625 35.640625 
Q 23 34 22.203125 31.84375 
Q 21.40625 29.703125 21.40625 27.203125 
L 21.40625 27 
Q 21.40625 24.40625 22.203125 22.15625 
Q 23 19.90625 24.390625 18.25 
Q 25.796875 16.59375 27.796875 15.640625 
Q 29.796875 14.703125 32.203125 14.703125 
Q 35.59375 14.703125 37.9375 16.203125 
Q 40.296875 17.703125 42.59375 20.296875 
L 55.296875 11.09375 
Q 51.5 5.5 45.796875 2.09375 
Q 40.09375 -1.296875 31.203125 -1.296875 
z
" id="GothamBlack-63"/>
    </defs>
    <g style="fill:#595959;" transform="translate(37.564844 14.570312)scale(0.1 -0.1)">
     <use xlink:href="#GothamBlack-54"/>
     <use x="65.999985" xlink:href="#GothamBlack-68"/>
     <use x="129.399979" xlink:href="#GothamBlack-65"/>
     <use x="189.899963" xlink:href="#GothamBlack-20"/>
     <use x="217.59996" xlink:href="#GothamBlack-43"/>
     <use x="290.599945" xlink:href="#GothamBlack-6f"/>
     <use x="356.199936" xlink:href="#GothamBlack-6e"/>
     <use x="419.59993" xlink:href="#GothamBlack-74"/>
     <use x="462.699921" xlink:href="#GothamBlack-72"/>
     <use x="505.499908" xlink:href="#GothamBlack-6f"/>
     <use x="571.099899" xlink:href="#GothamBlack-6c"/>
     <use x="601.099884" xlink:href="#GothamBlack-6c"/>
     <use x="631.099869" xlink:href="#GothamBlack-65"/>
     <use x="691.599854" xlink:href="#GothamBlack-64"/>
     <use x="759.199844" xlink:href="#GothamBlack-20"/>
     <use x="786.899841" xlink:href="#GothamBlack-43"/>
     <use x="859.899826" xlink:href="#GothamBlack-6f"/>
     <use x="925.499817" xlink:href="#GothamBlack-72"/>
     <use x="968.299805" xlink:href="#GothamBlack-72"/>
     <use x="1011.099792" xlink:href="#GothamBlack-65"/>
     <use x="1071.599777" xlink:href="#GothamBlack-6c"/>
     <use x="1101.599762" xlink:href="#GothamBlack-61"/>
     <use x="1161.499756" xlink:href="#GothamBlack-74"/>
     <use x="1204.599747" xlink:href="#GothamBlack-69"/>
     <use x="1234.599731" xlink:href="#GothamBlack-6f"/>
     <use x="1300.199722" xlink:href="#GothamBlack-6e"/>
     <use x="1363.599716" xlink:href="#GothamBlack-20"/>
     <use x="1391.299713" xlink:href="#GothamBlack-42"/>
     <use x="1462.799698" xlink:href="#GothamBlack-65"/>
     <use x="1523.299683" xlink:href="#GothamBlack-74"/>
     <use x="1566.399673" xlink:href="#GothamBlack-77"/>
     <use x="1652.499664" xlink:href="#GothamBlack-65"/>
     <use x="1712.999649" xlink:href="#GothamBlack-65"/>
     <use x="1773.499634" xlink:href="#GothamBlack-6e"/>
     <use x="1836.899628" xlink:href="#GothamBlack-20"/>
     <use x="1864.599625" xlink:href="#GothamBlack-45"/>
     <use x="1931.299622" xlink:href="#GothamBlack-6e"/>
     <use x="1994.699615" xlink:href="#GothamBlack-64"/>
     <use x="2062.299606" xlink:href="#GothamBlack-6f"/>
     <use x="2127.899597" xlink:href="#GothamBlack-77"/>
     <use x="2213.999588" xlink:href="#GothamBlack-6d"/>
     <use x="2311.099579" xlink:href="#GothamBlack-65"/>
     <use x="2371.599564" xlink:href="#GothamBlack-6e"/>
     <use x="2434.999557" xlink:href="#GothamBlack-74"/>
     <use x="2478.099548" xlink:href="#GothamBlack-20"/>
     <use x="2505.799545" xlink:href="#GothamBlack-28"/>
     <use x="2550.29953" xlink:href="#GothamBlack-42"/>
     <use x="2621.799515" xlink:href="#GothamBlack-69"/>
     <use x="2651.7995" xlink:href="#GothamBlack-6c"/>
     <use x="2681.799484" xlink:href="#GothamBlack-6c"/>
     <use x="2711.799469" xlink:href="#GothamBlack-69"/>
     <use x="2741.799454" xlink:href="#GothamBlack-6f"/>
     <use x="2807.399445" xlink:href="#GothamBlack-6e"/>
     <use x="2870.799438" xlink:href="#GothamBlack-73"/>
     <use x="2922.199432" xlink:href="#GothamBlack-20"/>
     <use x="2949.899429" xlink:href="#GothamBlack-6f"/>
     <use x="3015.49942" xlink:href="#GothamBlack-66"/>
     <use x="3055.899414" xlink:href="#GothamBlack-20"/>
     <use x="3083.599411" xlink:href="#GothamBlack-44"/>
     <use x="3160.099396" xlink:href="#GothamBlack-6f"/>
     <use x="3225.699387" xlink:href="#GothamBlack-6c"/>
     <use x="3255.699371" xlink:href="#GothamBlack-6c"/>
     <use x="3285.699356" xlink:href="#GothamBlack-61"/>
     <use x="3345.59935" xlink:href="#GothamBlack-72"/>
     <use x="3388.399338" xlink:href="#GothamBlack-73"/>
     <use x="3439.799332" xlink:href="#GothamBlack-29"/>
     <use x="3484.299316" xlink:href="#GothamBlack-20"/>
     <use x="3511.999313" xlink:href="#GothamBlack-61"/>
     <use x="3571.899307" xlink:href="#GothamBlack-6e"/>
     <use x="3635.299301" xlink:href="#GothamBlack-64"/>
     <use x="3702.899292" xlink:href="#GothamBlack-20"/>
     <use x="3730.599289" xlink:href="#GothamBlack-48"/>
     <use x="3806.69928" xlink:href="#GothamBlack-6f"/>
     <use x="3872.299271" xlink:href="#GothamBlack-75"/>
     <use x="3935.699265" xlink:href="#GothamBlack-73"/>
     <use x="3987.099258" xlink:href="#GothamBlack-69"/>
     <use x="4017.099243" xlink:href="#GothamBlack-6e"/>
     <use x="4080.499237" xlink:href="#GothamBlack-67"/>
     <use x="4148.099228" xlink:href="#GothamBlack-20"/>
     <use x="4175.799225" xlink:href="#GothamBlack-50"/>
     <use x="4243.099213" xlink:href="#GothamBlack-72"/>
     <use x="4285.8992" xlink:href="#GothamBlack-69"/>
     <use x="4315.899185" xlink:href="#GothamBlack-63"/>
     <use x="4372.799179" xlink:href="#GothamBlack-65"/>
     <use x="4433.299164" xlink:href="#GothamBlack-73"/>
    </g>
   </g>
  </g>
 </g>
 <defs>
  <clipPath id="pa0f347f6ce">
   <rect height="298.98" width="502.2" x="10.7" y="20.570312"/>
  </clipPath>
 </defs>
</svg>
